<svg xmlns="http://www.w3.org/2000/svg" width="24" height="24" viewBox="0 0 24 24" fill="none"><path d="M7.643 3.069a1.118 1.118 0 0 0-.343.229c-.252.252-.3.439-.3 1.164v.608l-.39.049c-2.038.255-3.171 1.347-3.469 3.343-.106.71-.139 1.788-.139 4.538 0 2.612.03 3.75.12 4.42.274 2.059 1.399 3.184 3.461 3.459.624.083 1.776.119 3.847.12l2.091.001-.188-.23c-.602-.738-1.055-1.73-1.238-2.71-.111-.593-.102-1.652.02-2.22a6.002 6.002 0 0 1 .569-1.601c.832-1.61 2.322-2.731 4.156-3.125.607-.13 1.714-.13 2.32 0 1 .216 1.887.63 2.61 1.219l.23.188-.001-1.111c-.001-1.163-.049-2.289-.121-2.83-.276-2.076-1.413-3.198-3.508-3.464L17 5.07v-.608c0-.724-.048-.913-.299-1.163a.984.984 0 0 0-1.402 0c-.247.247-.299.442-.299 1.128V5H9v-.573c0-.686-.052-.881-.299-1.128a.998.998 0 0 0-1.058-.23m3.697 6.997c.369.126.66.538.66.934s-.291.808-.66.934c-.279.095-3.395.1-3.662.005a.986.986 0 0 1-.547-.45c-.095-.161-.111-.233-.111-.489s.016-.328.111-.489c.061-.103.173-.236.25-.294.274-.209.313-.213 2.102-.215 1.446-.002 1.688.007 1.857.064m5.093 2.974a4.383 4.383 0 0 0-1.718.682c-.326.22-.773.667-.993.993a4.848 4.848 0 0 0-.609 1.347c-.071.287-.089.473-.089.938 0 .697.086 1.1.352 1.663.232.489.459.818.801 1.16a4.211 4.211 0 0 0 1.885 1.064c.509.126 1.367.126 1.876 0a4.211 4.211 0 0 0 1.885-1.064 4.211 4.211 0 0 0 1.064-1.885c.126-.509.126-1.367 0-1.876a4.211 4.211 0 0 0-1.064-1.885 4.186 4.186 0 0 0-1.865-1.057c-.386-.094-1.175-.136-1.525-.08M8.9 14.094c.622.29.793 1.061.345 1.558-.239.265-.469.347-.97.348-.631 0-.919-.129-1.144-.511-.095-.161-.111-.233-.111-.489s.016-.328.111-.489c.227-.386.496-.507 1.129-.509.379-.001.468.012.64.092m8.5.493c.199.081.394.28.505.513.077.163.094.265.095.55 0 .312.008.35.073.35.173 0 .471.142.628.299a.984.984 0 0 1-.001 1.403c-.253.253-.467.309-1.112.291-.469-.012-.553-.026-.753-.119a1.373 1.373 0 0 1-.685-.667l-.13-.265-.013-.797c-.015-.902.012-1.032.266-1.314.296-.327.708-.417 1.127-.244" fill="#10161F" fill-rule="evenodd"/></svg>