<svg width="336" height="175" viewBox="0 0 336 175" fill="none" xmlns="http://www.w3.org/2000/svg">
<g clip-path="url(#clip0_824_626)">
<path d="M150.935 88.105C150.935 82.8638 146.689 78.615 141.45 78.615C136.212 78.615 131.965 82.8638 131.965 88.105V117.855C131.965 123.096 136.212 127.345 141.45 127.345C146.689 127.345 150.935 123.096 150.935 117.855V88.105Z" fill="currentColor" fill-rule="evenodd"/>
<path d="M204.035 88.105C204.035 82.8638 199.788 78.615 194.55 78.615C189.312 78.615 185.065 82.8638 185.065 88.105V117.855C185.065 123.096 189.312 127.345 194.55 127.345C199.788 127.345 204.035 123.096 204.035 117.855V88.105Z" fill="currentColor" fill-rule="evenodd"/>
<path d="M331.605 21.805L256.915 59.305C256.165 59.685 255.275 59.655 254.555 59.215C253.295 58.445 251.985 57.755 250.635 57.155C250.035 56.885 249.555 56.405 249.315 55.785C240.965 34.405 224.435 17.115 203.555 7.795C202.745 7.435 201.845 8.035 201.845 8.915V58.395C201.845 59.025 202.325 59.545 202.945 59.615C206.245 59.935 209.545 60.295 212.845 60.715H212.905C224.475 62.205 233.935 72.965 233.935 84.625V118.425C233.935 130.085 224.465 140.805 212.905 142.255L212.645 142.285C182.915 146.005 152.835 145.995 123.105 142.255C111.535 140.805 102.065 130.065 102.065 118.405V84.625C102.065 72.965 111.525 62.215 123.095 60.725H123.155C126.475 60.295 129.795 59.935 133.115 59.615C133.745 59.555 134.225 59.025 134.225 58.395V8.895C134.225 8.015 133.315 7.415 132.515 7.765C111.615 17.085 95.0551 34.375 86.6951 55.785C86.4551 56.395 85.9751 56.885 85.3751 57.155C84.0151 57.755 82.7051 58.445 81.4451 59.215C80.7351 59.655 79.8351 59.685 79.0851 59.305L4.3951 21.805C-0.544898 19.325 -1.1749 26.305 3.1851 32.815L10.5451 43.805C16.5651 52.795 23.4051 58.925 29.4551 61.225L65.9751 75.065C66.9451 75.435 67.4651 76.505 67.1251 77.495C67.0051 77.865 66.8751 78.245 66.7551 78.615C66.4151 79.675 65.2551 80.225 64.2151 79.835L36.0251 69.055C32.7751 67.885 31.6751 72.255 34.1551 76.035L37.2151 80.725C40.8151 86.215 45.3451 89.865 49.6951 91.025L65.6551 95.285C66.2051 95.435 66.6551 95.825 66.8751 96.345C67.0651 96.785 67.3151 97.315 67.5651 97.835C68.0151 98.775 67.1651 99.805 66.1551 99.555L54.4851 96.605C52.1051 96.005 50.9151 99.075 52.5051 101.545L54.0551 104.035C56.4251 107.735 59.7151 110.115 63.0751 110.715L77.4851 113.305C77.8751 113.375 78.2351 113.535 78.5451 113.775C80.6451 115.395 82.9551 116.765 85.4151 117.845C86.0151 118.115 86.4951 118.595 86.7351 119.205C99.6351 151.975 131.865 175.225 169.145 174.735C205.655 174.265 236.755 151.355 249.315 119.175C249.555 118.565 250.025 118.075 250.635 117.815C253.065 116.735 255.345 115.375 257.425 113.775C257.735 113.535 258.095 113.365 258.485 113.305L272.895 110.715C276.255 110.115 279.535 107.735 281.915 104.035L283.465 101.545C285.045 99.075 283.855 96.005 281.485 96.605L269.815 99.555C268.805 99.805 267.965 98.775 268.405 97.835C268.655 97.305 268.905 96.785 269.095 96.345C269.315 95.825 269.765 95.425 270.315 95.285L286.275 91.025C290.625 89.865 295.165 86.215 298.755 80.725L301.815 76.035C304.295 72.255 303.185 67.885 299.945 69.055L271.755 79.835C270.715 80.235 269.555 79.675 269.215 78.615C269.095 78.245 268.965 77.855 268.845 77.495C268.515 76.505 269.025 75.435 269.995 75.065L306.515 61.225C312.575 58.925 319.405 52.795 325.425 43.805L332.785 32.815C337.145 26.305 336.515 19.325 331.575 21.805H331.605Z" fill="currentColor" fill-rule="evenodd"/>
<path d="M141.665 58.865C150.435 58.215 159.225 57.895 168.005 57.895C176.815 57.895 185.615 58.215 194.405 58.865C195.115 58.915 195.715 58.355 195.715 57.645V5.62499C195.715 5.09499 195.375 4.61498 194.865 4.45499C186.405 1.71499 177.375 0.234985 167.995 0.234985C158.615 0.234985 149.635 1.70499 141.195 4.43499C140.685 4.59499 140.345 5.07499 140.345 5.60499V57.655C140.345 58.365 140.945 58.925 141.655 58.875L141.665 58.865Z" fill="currentColor" fill-rule="evenodd"/>
</g>
<defs>
<clipPath id="clip0_824_626">
<rect width="335.45" height="174.53" fill="white" transform="translate(0.274902 0.234985)"/>
</clipPath>
</defs>
</svg>
