<svg xmlns="http://www.w3.org/2000/svg" width="24" height="24" fill="none"><path d="M24 0v24H0V0z" fill="#fff" fill-opacity=".01"/><path clip-rule="evenodd" d="M15.446 4.003c1.937.693 3.597 2.434 4.174 4.8q.048.192.082.385a4.46 4.46 0 0 0-2.772-.066c-1.4-1.04-3.13-1.11-4.57-.481-1.641.716-2.906 2.31-3.21 4.296-.418 2.724 1.28 5.164 3.637 7.223a4.1 4.1 0 0 1-1.663-.115c-4.773-1.343-7.97-3.446-8.887-6.584-.683-2.338-.115-4.675 1.216-6.244 1.35-1.591 3.503-2.39 5.793-1.526.14.053.326.003.42-.113 1.55-1.893 3.815-2.277 5.78-1.575m.73 7.127a.64.64 0 0 0 .774.136c.623-.333 1.248-.402 1.815-.27 1.494.345 2.588 2.074 2.208 3.98q-.5 2.501-4.783 4.12a1.99 1.99 0 0 1-1.979-.348l-.108-.094q-3.357-2.932-2.976-5.415c.406-2.65 3.334-4.023 5.049-2.109" fill="#10161F" fill-rule="evenodd"/></svg>