<svg xmlns="http://www.w3.org/2000/svg" width="24" height="24" viewBox="0 0 24 24" fill="none"><path d="M5.516 10.577a1.7 1.7 0 0 0-.878.803c-.085.174-.098.255-.098.62 0 .385.01.439.117.651.139.273.445.575.723.711.174.085.255.098.62.098s.446-.013.62-.098c.278-.136.584-.438.723-.711.107-.212.117-.266.117-.651 0-.365-.013-.446-.098-.62a1.8 1.8 0 0 0-.709-.722c-.198-.1-.282-.117-.611-.126q-.382-.01-.526.045m6 0a1.7 1.7 0 0 0-.878.803c-.085.174-.098.255-.098.62 0 .385.01.439.117.651.139.273.445.575.723.711.174.085.255.098.62.098s.446-.013.62-.098c.278-.136.584-.438.723-.711.107-.212.117-.266.117-.651 0-.365-.013-.446-.098-.62a1.8 1.8 0 0 0-.709-.722c-.198-.1-.282-.117-.611-.126q-.381-.01-.526.045m6 0a1.7 1.7 0 0 0-.878.803c-.085.174-.098.255-.098.62 0 .385.01.439.117.651.139.273.445.575.723.711.174.085.255.098.62.098s.446-.013.62-.098c.278-.136.584-.438.723-.711.107-.212.117-.266.117-.651 0-.365-.013-.446-.098-.62a1.8 1.8 0 0 0-.709-.722c-.198-.1-.282-.117-.611-.126-.253-.007-.431.008-.526.045" fill="#10161F" fill-rule="evenodd"/></svg>