<svg xmlns="http://www.w3.org/2000/svg" width="24" height="24" viewBox="0 0 24 24" fill="none"><path fill="#000" d="M20.572 10.184a4.988 4.988 0 0 0-.43-4.092 5.038 5.038 0 0 0-5.424-2.417 5.054 5.054 0 0 0-8.564 1.81A4.987 4.987 0 0 0 2.823 7.9a5.039 5.039 0 0 0 .619 5.914 4.983 4.983 0 0 0 .426 4.092 5.042 5.042 0 0 0 5.429 2.417A4.988 4.988 0 0 0 13.054 22a5.047 5.047 0 0 0 4.81-3.505 4.992 4.992 0 0 0 3.331-2.417 5.046 5.046 0 0 0-.623-5.894m-7.518 10.507a3.73 3.73 0 0 1-2.397-.867l.118-.067 3.982-2.299a.663.663 0 0 0 .327-.568v-5.614l1.684.974a.06.06 0 0 1 .031.043v4.653a3.753 3.753 0 0 1-3.745 3.745m-8.05-3.438a3.726 3.726 0 0 1-.446-2.511l.118.07 3.986 2.3a.642.642 0 0 0 .65 0l4.87-2.808v1.944a.068.068 0 0 1-.028.051l-4.033 2.326a3.75 3.75 0 0 1-5.118-1.372M3.953 8.58a3.738 3.738 0 0 1 1.972-1.644v4.73a.639.639 0 0 0 .323.564l4.845 2.796-1.683.973a.062.062 0 0 1-.06 0l-4.025-2.322A3.753 3.753 0 0 1 3.954 8.56zm13.83 3.213-4.86-2.823 1.68-.97a.063.063 0 0 1 .058 0l4.026 2.326a3.746 3.746 0 0 1-.564 6.754v-4.731a.658.658 0 0 0-.34-.556m1.676-2.52-.118-.07-3.978-2.319a.646.646 0 0 0-.654 0L9.845 9.691V7.748a.055.055 0 0 1 .023-.051l4.025-2.323a3.75 3.75 0 0 1 5.567 3.884zM8.926 12.72l-1.683-.97a.067.067 0 0 1-.032-.047v-4.64a3.75 3.75 0 0 1 6.146-2.878l-.118.067-3.982 2.298a.662.662 0 0 0-.327.568zm.915-1.971 2.168-1.25 2.172 1.25v2.5l-2.164 1.25-2.172-1.25z"/></svg>