<svg xmlns="http://www.w3.org/2000/svg" width="24" height="24" fill="none"><path fill="#fff" fill-opacity=".01" d="M24 0v24H0V0z"/><path stroke="#10161F" stroke-linecap="round" stroke-linejoin="round" stroke-width="2" d="M9.5 3.5c-1.073.538-1.82 1.25-2.384 2.278a.462.462 0 0 0 0 .444C7.68 7.25 8.426 7.962 9.5 8.5m7 9.5H11a7 7 0 0 1-7-7v-1m10.5 10.5c1.073-.538 1.82-1.25 2.384-2.278a.462.462 0 0 0 0-.444c-.563-1.028-1.31-1.74-2.384-2.278M7.5 6H13c1.074 0 2.09.242 3 .674M19 8l.13.378a4 4 0 0 0 2.492 2.493L22 11l-.378.13a4 4 0 0 0-2.493 2.492L19 14l-.13-.378a4 4 0 0 0-2.492-2.493L16 11l.378-.13a4 4 0 0 0 2.493-2.492z"/></svg>