<svg xmlns="http://www.w3.org/2000/svg" width="24" height="24" fill="none"><path fill="#fff" fill-opacity=".01" d="M24 0v24H0V0z"/><path fill="#10161F" d="M16.586 15.172a1 1 0 1 0-1.414 1.414zm2.828 5.656a1 1 0 0 0 1.414-1.414zM11.801 4.13a1 1 0 0 0 .398-1.96zm7.029 8.069a1 1 0 1 0-1.96-.398zM19 2l.946-.323a1 1 0 0 0-1.892 0zm3 3 .323.946a1 1 0 0 0 0-1.892zm-3 3-.946.323a1 1 0 0 0 1.892 0zm-3-3-.323-.946a1 1 0 0 0 0 1.892zm2.87-2.622-.946-.323zm0 5.244-.946.323zm.26 0-.947-.323zM10.5 17A6.5 6.5 0 0 1 4 10.5H2a8.5 8.5 0 0 0 8.5 8.5zM4 10.5A6.5 6.5 0 0 1 10.5 4V2A8.5 8.5 0 0 0 2 10.5zm11.172 6.086 4.242 4.242 1.414-1.414-4.242-4.242zM10.5 4c.447 0 .882.045 1.301.13l.398-1.96A8.534 8.534 0 0 0 10.5 2zm6.37 7.801A6.503 6.503 0 0 1 10.5 17v2a8.503 8.503 0 0 0 8.33-6.801zm1.184-9.478.129.378 1.893-.646-.13-.378zm3.245 3.494.378.13.646-1.893-.378-.13zm.378-1.763-.378.129.646 1.892.378-.129zm-3.494 3.245-.13.378 1.893.646.13-.378zm1.763.378-.129-.378-1.893.646.13.378zm-3.245-3.494-.378-.13-.646 1.893.378.13zm-.378 1.763.378-.129-.646-1.892-.378.129zm3.494-3.245.13-.378-1.893-.646-.13.378zm-3.116 3.116a5 5 0 0 0 3.116-3.116l-1.893-.646a3 3 0 0 1-1.869 1.87zM19.817 7.3a5 5 0 0 0-3.116-3.116l-.646 1.892a3 3 0 0 1 1.87 1.87zM21.3 4.183a5 5 0 0 0-3.116 3.116l1.893.646a3 3 0 0 1 1.869-1.87zM18.183 2.7a5 5 0 0 0 3.116 3.116l.646-1.892a3 3 0 0 1-1.87-1.87z"/></svg>